<svg width="45" height="45" viewBox="0 0 45 45" fill="none" xmlns="http://www.w3.org/2000/svg">
<circle cx="22.5" cy="22.5" r="21.5" fill="black" stroke="white" stroke-width="2"/>
<path d="M28 16C28.7956 16 29.5587 16.3161 30.1213 16.8787C30.6839 17.4413 31 18.2044 31 19C31 19.7956 30.6839 20.5587 30.1213 21.1213C29.5587 21.6839 28.7956 22 28 22C27.2044 22 26.4413 21.6839 25.8787 21.1213C25.3161 20.5587 25 19.7956 25 19C25 18.2044 25.3161 17.4413 25.8787 16.8787C26.4413 16.3161 27.2044 16 28 16ZM28 23.5C31.315 23.5 34 24.8425 34 26.5V28H22V26.5C22 24.8425 24.685 23.5 28 23.5Z" fill="#C6F1C2"/>
<path d="M16 16C16.7956 16 17.5587 16.3161 18.1213 16.8787C18.6839 17.4413 19 18.2044 19 19C19 19.7956 18.6839 20.5587 18.1213 21.1213C17.5587 21.6839 16.7956 22 16 22C15.2044 22 14.4413 21.6839 13.8787 21.1213C13.3161 20.5587 13 19.7956 13 19C13 18.2044 13.3161 17.4413 13.8787 16.8787C14.4413 16.3161 15.2044 16 16 16ZM16 23.5C19.315 23.5 22 24.8425 22 26.5V28H10V26.5C10 24.8425 12.685 23.5 16 23.5Z" fill="#F8B16F"/>
<path d="M22.1104 13C23.1712 13 24.1886 13.4214 24.9388 14.1716C25.6889 14.9217 26.1104 15.9391 26.1104 17C26.1104 18.0609 25.6889 19.0783 24.9388 19.8284C24.1886 20.5786 23.1712 21 22.1104 21C21.0495 21 20.0321 20.5786 19.2819 19.8284C18.5318 19.0783 18.1104 18.0609 18.1104 17C18.1104 15.9391 18.5318 14.9217 19.2819 14.1716C20.0321 13.4214 21.0495 13 22.1104 13ZM22.1104 23C26.5304 23 30.1104 24.79 30.1104 27V29H14.1104V27C14.1104 24.79 17.6904 23 22.1104 23Z" fill="#B988FC"/>
</svg>
